<svg xmlns="http://www.w3.org/2000/svg" viewBox="220 150 560 640">
  <rect x="220" y="150" width="560" height="640" rx="120" fill="#ffffff"/>
  <path fill="#0064dd" d="M401.77319,235.08057a180.05348,180.05348,0,0,1,125.635-50.414c100.579,0,182.124,80.88,182.124,180.679a179.491,179.491,0,0,1-50.619,125.038l-171.379,170.14-79.14-78.509,216.64-215.025-98.929-98.21795-128.9,127.876-79.111-78.525Z"/>
  <path fill="#00b900" d="M616.01721,709.20944a184.34372,184.34372,0,0,1-129.133,52.366c-101.364,0-183.535-80.995-183.535-180.942a179.24675,179.24675,0,0,1,54.674-128.86l167.546-166.288,80.647,80.044-216.805,215.104,97.433,96.745,128.03-127.029,80.63,80.022-79.436,78.838Z"/>
</svg>
